# xmcd CD database file
#
# Track frame offsets:
#	150
#	27719
#	71716
#	94634
#	126063
#	154304
#
# Disc length: 2398 seconds
#
# Revision: 0
# Processed by: cddbd v1.5.2PL0 Copyright (c) Steve Scherf et al.
# Submitted via: CDex 1.51
#
DISCID=4f095c06
DTITLE=Al Cohn - Play It Now
DYEAR=1900
DGENRE=Jazz
TTITLE0=You're My Everything
TTITLE1=Lover
TTITLE2=Play It Now
TTITLE3=Irresistible You
TTITLE4=Georgia On My Mind
TTITLE5=It's Sand, Man
EXTD=
EXTT0=
EXTT1=
EXTT2=
EXTT3=
EXTT4=
EXTT5=
PLAYORDER=
